# xmcd CD database file
#
# Track frame offsets:
#	150
#	15396
#	32607
#	46532
#	61696
#	81342
#	95997
#	111817
#	128576
#	146142
#	160756
#	177992
#	196946
#
# Disc length: 2869 seconds
#
# Revision: 2
# Processed by: cddbd v1.4b41PL1 Copyright (c) Steve Scherf et al.
# Submitted via: Feurio! 1.51.15ß - http://www.feurio.com
#
DISCID=a10b330d
DTITLE=Backstreetboys - Black and Blue
DYEAR=1900
DGENRE=
TTITLE0=The Call
TTITLE1=Shape Of My Heart
TTITLE2=Get Another Boytnend
TTITLE3=Shining Star
TTITLE4=I Promise You
TTITLE5=The Answer To Our Life
TTITLE6=Evryone
TTITLE7=More Than That
TTITLE8=Time
TTITLE9=Not For Me
TTITLE10=Yes I Will
TTITLE11=It's True
TTITLE12=How Did I Fall In Love With You
EXTD=
EXTT0=
EXTT1=
EXTT2=
EXTT3=
EXTT4=
EXTT5=
EXTT6=
EXTT7=
EXTT8=
EXTT9=
EXTT10=
EXTT11=
EXTT12=
PLAYORDER=
